<svg id="Layer_1" data-name="Layer 1" xmlns="http://www.w3.org/2000/svg" viewBox="0 0 500 500"><defs><style>.cls-1{fill:#333;}.cls-2{fill:#399;}</style></defs><title>anthony-woodcock-logo</title><polygon class="cls-1" points="296.76 250 306.21 269 269.5 269 268.76 269.36 259.53 250.47 260.5 250 296.76 250"/><polygon class="cls-1" points="241.36 249.69 231.38 269 192.66 269 202.73 249.5 241 249.5 241.36 249.69"/><polygon class="cls-2" points="171.38 312.23 156.42 274.16 104.5 142 132.5 142 174.01 245.2 187.56 278.88 204.5 321 231.38 269 241.36 249.69 250.5 232 259.53 250.47 268.76 269.36 294.5 322 311.5 280 328.28 314.56 297.5 394 250.5 296 203.5 394 171.38 312.23"/><polygon class="cls-1" points="342.74 280.37 392 372.5 357.69 372.5 328.57 313.96 306.21 269 296.76 250 250.5 157 202.73 249.5 192.66 269 187.56 278.88 174.01 245.2 174.5 245 249.5 106 326.5 250 342.74 280.37"/><path class="cls-1" d="M250.25.25c138.07,0,250,111.93,250,250s-111.93,250-250,250-250-111.93-250-250S112.18.25,250.25.25Zm225,250c0-124.26-100.74-225-225-225s-225,100.74-225,225,100.74,225,225,225S475.25,374.51,475.25,250.25Z" transform="translate(-0.25 -0.25)"/><polygon class="cls-2" points="395.5 142 342.74 280.37 326.5 250 366.5 142 395.5 142"/><polygon class="cls-1" points="171.38 312.23 142.5 367 142.38 367.5 108 367.5 107.5 367 156.42 274.16 171.38 312.23"/></svg>